<svg xmlns="http://www.w3.org/2000/svg" viewBox="0 0 534.28 52"><defs><style>.cls-1{fill:#fcf8f6;}.cls-2{fill:none;stroke:#fcf8f6;stroke-linecap:round;stroke-linejoin:round;}</style></defs><g id="Layer_2" data-name="Layer 2"><g id="Layer_1-2" data-name="Layer 1"><path class="cls-1" d="M0,12.51H11.66l9.89,24.12H22L31.9,12.51H43.56v39H34.39V27.54h-.32L24.71,51.22H18.85L9.49,27.41H9.17V51.47H0Z"/><path class="cls-1" d="M59.53,51.47v-39H86.69v7.65H68.94v8H85.3v7.66H68.94v8H86.69v7.65Z"/><path class="cls-1" d="M128.22,25.24a6.72,6.72,0,0,0-1-2.12,6.05,6.05,0,0,0-1.54-1.57,6.71,6.71,0,0,0-2.09-1,9.6,9.6,0,0,0-2.59-.34,8.69,8.69,0,0,0-4.9,1.37,8.89,8.89,0,0,0-3.18,4,16,16,0,0,0-1.12,6.34,16.88,16.88,0,0,0,1.08,6.39,8.2,8.2,0,0,0,8.12,5.43,10.32,10.32,0,0,0,4.39-.85,6.14,6.14,0,0,0,2.73-2.41,7,7,0,0,0,.93-3.67l1.75.21h-9.47V30.16h16.79v5.16a17.3,17.3,0,0,1-2.21,9A14.92,14.92,0,0,1,129.87,50,19,19,0,0,1,121,52a19.4,19.4,0,0,1-9.8-2.41,16.72,16.72,0,0,1-6.58-6.9,22.58,22.58,0,0,1-2.36-10.64,23.7,23.7,0,0,1,1.43-8.52,18.07,18.07,0,0,1,4-6.3,17.1,17.1,0,0,1,5.94-3.92A19.57,19.57,0,0,1,120.86,12a19.82,19.82,0,0,1,6.31,1,17,17,0,0,1,5.17,2.74,14.38,14.38,0,0,1,3.66,4.2,13.67,13.67,0,0,1,1.75,5.35Z"/><path class="cls-1" d="M176.57,12.51H164l-13.14,39H161l2.56-8.18H177l2.57,8.18h10.12ZM165.81,36.13l4.33-13.8h.3l4.34,13.8Z"/><path class="cls-1" d="M237.14,12.51v39h-8L213.65,29h-.25V51.47H204v-39h8.11L227.42,35h.32V12.51Z"/><path class="cls-1" d="M311.47,32A22.21,22.21,0,0,1,309,42.89a16.89,16.89,0,0,1-6.69,6.79,20.31,20.31,0,0,1-18.89,0,16.93,16.93,0,0,1-6.67-6.8A22.22,22.22,0,0,1,274.29,32a22.32,22.32,0,0,1,2.46-10.9,16.78,16.78,0,0,1,6.67-6.79,20.39,20.39,0,0,1,18.89,0A16.89,16.89,0,0,1,309,21.09,22.21,22.21,0,0,1,311.47,32Zm-9.62,0a16.91,16.91,0,0,0-1.08-6.43,8.52,8.52,0,0,0-3.08-4,8.44,8.44,0,0,0-12.72,4A16.91,16.91,0,0,0,283.89,32,16.91,16.91,0,0,0,285,38.42a8.43,8.43,0,0,0,15.8,0A16.91,16.91,0,0,0,301.85,32Z"/><path class="cls-1" d="M350.08,51.47v-39h9.42V28.15h15.35V12.51h9.4v39h-9.4V35.81H359.5V51.47Z"/><path class="cls-1" d="M424.2,12.51H411.66l-13.14,39h10.12l2.56-8.18h13.46l2.57,8.18h10.12ZM413.45,36.13l4.32-13.8h.31l4.33,13.8Z"/><path class="cls-1" d="M475.17,36.64a11.18,11.18,0,0,0,5-4.28,12.7,12.7,0,0,0,1.77-6.87,13.36,13.36,0,0,0-1.73-6.92,11.47,11.47,0,0,0-4.92-4.49,17,17,0,0,0-7.56-1.57H451.62v39H461V38.13h4.83L473,51.47h10.27ZM461,20.1h4.65a9.24,9.24,0,0,1,3.55.6,4.51,4.51,0,0,1,2.19,1.79,5.52,5.52,0,0,1,.74,3,5.31,5.31,0,0,1-.74,3,4.34,4.34,0,0,1-2.18,1.71,9.67,9.67,0,0,1-3.56.56H461Z"/><path class="cls-1" d="M521.13,12.51H508.6l-13.15,39h10.12l2.57-8.18h13.45l2.57,8.18h10.12ZM510.38,36.13l4.33-13.8h.3l4.34,13.8Z"/><path class="cls-2" d="M334.78,15.55a8.76,8.76,0,1,1-7.7-15,8.76,8.76,0,0,0,7.7,15.05Z"/></g></g></svg>